# xmcd
#
# Track frame offsets:
#       150
#       9607
#       20755
#       32312
#       41042
#       52400
#       65392
#       77115
#       88852
#       98795
#       111345
#       124755
#       137490
#       150412
#       164180
#       177237
#       191450
#       203297
#       215725
#       225735
#
# Disc length: 3185 seconds
#
# Revision: 2
# Processed by: cddbd v1.5.2PL0 Copyright (c) Steve Scherf et al.
# Submitted via: FreeDbEdit v0.1
#
DISCID=140c6f14
DTITLE=Tennessee Ernie Ford - The Ultimate Tennesee Ernie Ford Collecti
DTITLE=on [CD2]
DYEAR=1997
DGENRE=Country
TTITLE0=Hey, Good Lookin'
TTITLE1=Blackberry Boogiy
TTITLE2=I Don't Know
TTITLE3=This Must Be the Place
TTITLE4=River of No Return
TTITLE5=The Ballad of Davy Crockett
TTITLE6=His Hands
TTITLE7=Sixteen Tons
TTITLE8=You Don't Have to Be
TTITLE9=That's All
TTITLE10=Work Song
TTITLE11=Sweet Dreams
TTITLE12=Hicktown
TTITLE13=Trouble in Mind
TTITLE14=Sweet Hour of Prayer
TTITLE15=Softly and Tenderly
TTITLE16=The Old Rugged Cross
TTITLE17=Rock of Ages
TTITLE18=When God Dips His Love in My Heart
TTITLE19=Just a Little Talk With Jesus
EXTD=
EXTT0=
EXTT1=
EXTT2=
EXTT3=
EXTT4=
EXTT5=
EXTT6=
EXTT7=
EXTT8=
EXTT9=
EXTT10=
EXTT11=
EXTT12=
EXTT13=
EXTT14=
EXTT15=
EXTT16=
EXTT17=
EXTT18=
EXTT19=
PLAYORDER=
